<svg width="440" height="240" viewBox="0 0 440 240" fill="none" xmlns="http://www.w3.org/2000/svg">
    <g clip-path="url(#clip0_2031_35028)">
        <path d="M0 12C0 5.37259 5.37258 0 12 0H428C434.627 0 440 5.37258 440 12V240H0V12Z" fill="#202020" />
        <path d="M440 0H265V240H440V0Z" fill="url(#paint0_radial_2031_35028)" />
        <g clip-path="url(#clip1_2031_35028)">
            <path
                d="M330 239.768H270C270 186.88 290.592 137.152 327.992 99.7601C365.392 62.3681 415.112 41.7681 468 41.7681V101.768C391.904 101.768 330 163.672 330 239.768Z"
                fill="url(#paint1_radial_2031_35028)" />
            <path
                d="M325.44 128.008L325.984 129.536C326.16 130.048 326.56 130.448 327.072 130.624L328.6 131.168C329.064 131.336 329.064 131.992 328.6 132.152L327.072 132.696C326.56 132.872 326.16 133.272 325.984 133.784L325.44 135.312C325.272 135.776 324.616 135.776 324.456 135.312L323.912 133.784C323.736 133.272 323.336 132.872 322.824 132.696L321.296 132.152C320.832 131.984 320.832 131.328 321.296 131.168L322.824 130.624C323.336 130.448 323.736 130.048 323.912 129.536L324.456 128.008C324.616 127.544 325.28 127.544 325.44 128.008Z"
                fill="white" />
            <path
                d="M401.824 6.696L402.904 9.752C403.264 10.768 404.064 11.568 405.08 11.928L408.136 13.008C409.064 13.336 409.064 14.648 408.136 14.976L405.08 16.056C404.064 16.416 403.264 17.216 402.904 18.232L401.824 21.288C401.496 22.216 400.184 22.216 399.856 21.288L398.776 18.232C398.416 17.216 397.616 16.416 396.6 16.056L393.544 14.976C392.616 14.648 392.616 13.336 393.544 13.008L396.6 11.928C397.616 11.568 398.416 10.768 398.776 9.752L399.856 6.696C400.184 5.768 401.496 5.768 401.824 6.696Z"
                fill="#FF9C2E" />
            <path
                d="M396.328 142.392H368.048H339.76L321.224 181.776C321.048 182.144 320.96 182.544 320.96 182.952C320.96 183.808 321.352 184.616 322.032 185.136L336.592 196.416C339.168 198.408 342.328 199.488 345.584 199.488H368.04H390.496C393.752 199.488 396.912 198.408 399.488 196.416L414.048 185.136C414.728 184.616 415.12 183.808 415.12 182.952C415.12 182.544 415.032 182.144 414.856 181.776L396.328 142.392Z"
                fill="white" stroke="#202020" stroke-width="1.2" stroke-miterlimit="10" stroke-linecap="round"
                stroke-linejoin="round" />
            <path
                d="M368.048 147.096C383.662 147.096 396.32 144.99 396.32 142.392C396.32 139.794 383.662 137.688 368.048 137.688C352.434 137.688 339.776 139.794 339.776 142.392C339.776 144.99 352.434 147.096 368.048 147.096Z"
                fill="#FF9C2E" stroke="#202020" stroke-width="1.2" stroke-miterlimit="10" stroke-linecap="round"
                stroke-linejoin="round" />
            <path
                d="M320.96 182.952C320.96 183.808 321.352 184.616 322.032 185.136L336.592 196.416C339.168 198.408 342.328 199.488 345.584 199.488H368.04H390.496C393.752 199.488 396.912 198.408 399.488 196.416L414.048 185.136C414.728 184.616 415.12 183.808 415.12 182.952L397.512 186.984C392.848 188.056 388.08 188.592 383.296 188.592H352.784C348 188.592 343.232 188.056 338.568 186.984L320.96 182.952Z"
                stroke="#202020" stroke-width="1.2" stroke-miterlimit="10" stroke-linecap="round"
                stroke-linejoin="round" />
            <path d="M368.048 137.688V147.096" stroke="#202020" stroke-width="1.2" stroke-miterlimit="10"
                stroke-linecap="round" stroke-linejoin="round" />
            <path d="M368.048 118.472C368.048 111.04 357.08 101.24 357.08 101.24" stroke="#202020" stroke-width="1.2"
                stroke-miterlimit="10" stroke-linecap="round" stroke-linejoin="round" />
            <path
                d="M335.784 96.3518C326.96 86.2238 328.672 72.8399 328.672 72.8399C328.672 72.8399 342.064 71.1278 352.184 79.9518C362.312 88.7758 357.072 101.24 357.072 101.24C357.072 101.24 344.608 106.48 335.784 96.3518Z"
                fill="#FF9C2E" stroke="#202020" stroke-width="1.2" stroke-miterlimit="10" stroke-linecap="round"
                stroke-linejoin="round" />
            <path d="M368.048 137.688V81.9839" stroke="#202020" stroke-width="1.2" stroke-miterlimit="10"
                stroke-linecap="round" stroke-linejoin="round" />
            <path d="M357.072 101.24L343.48 87.6479" stroke="#202020" stroke-width="1.2" stroke-miterlimit="10"
                stroke-linecap="round" stroke-linejoin="round" />
            <path d="M368.048 133.28C368.048 127.84 359.784 120.672 359.784 120.672" stroke="#202020" stroke-width="1.2"
                stroke-miterlimit="10" stroke-linecap="round" stroke-linejoin="round" />
            <path
                d="M344.2 117.096C337.744 109.688 339 99.8879 339 99.8879C339 99.8879 348.8 98.6319 356.208 105.088C363.616 111.544 359.784 120.664 359.784 120.664C359.784 120.664 350.664 124.504 344.2 117.096Z"
                fill="white" stroke="#202020" stroke-width="1.2" stroke-miterlimit="10" stroke-linecap="round"
                stroke-linejoin="round" />
            <path d="M359.776 120.672L349.84 110.728" stroke="#202020" stroke-width="1.2" stroke-miterlimit="10"
                stroke-linecap="round" stroke-linejoin="round" />
            <path d="M386.296 92.9038C386.296 92.9038 368.04 108 368.04 115.528V127.152" stroke="#202020"
                stroke-width="1.2" stroke-miterlimit="10" stroke-linecap="round" stroke-linejoin="round" />
            <path d="M379.28 116.48C379.28 116.48 368.048 126.304 368.048 133.832" stroke="#202020" stroke-width="1.2"
                stroke-miterlimit="10" stroke-linecap="round" stroke-linejoin="round" />
            <path
                d="M392.616 113.416C398.144 107.072 397.072 98.688 397.072 98.688C397.072 98.688 388.688 97.616 382.344 103.144C376 108.672 379.288 116.48 379.288 116.48C379.288 116.48 387.088 119.76 392.616 113.416Z"
                fill="white" stroke="#202020" stroke-width="1.2" stroke-miterlimit="10" stroke-linecap="round"
                stroke-linejoin="round" />
            <path d="M387.792 107.968L379.28 116.48" stroke="#202020" stroke-width="1.2" stroke-miterlimit="10"
                stroke-linecap="round" stroke-linejoin="round" />
            <path
                d="M368.048 91.3439C386.781 91.3439 401.968 76.1574 401.968 57.4239C401.968 38.6904 386.781 23.5039 368.048 23.5039C349.314 23.5039 334.128 38.6904 334.128 57.4239C334.128 76.1574 349.314 91.3439 368.048 91.3439Z"
                fill="white" stroke="#202020" stroke-width="1.2" stroke-miterlimit="10" stroke-linecap="round"
                stroke-linejoin="round" />
            <path
                d="M368.072 83.12C382.263 83.12 393.768 71.6155 393.768 57.424C393.768 43.2325 382.263 31.728 368.072 31.728C353.88 31.728 342.376 43.2325 342.376 57.424C342.376 71.6155 353.88 83.12 368.072 83.12Z"
                fill="#F7931A" stroke="#202020" stroke-width="1.2" stroke-miterlimit="10" stroke-linecap="round"
                stroke-linejoin="round" />
            <path
                d="M344.696 57.424C344.696 43.624 355.576 32.36 369.232 31.752C368.848 31.736 368.464 31.728 368.072 31.728C353.88 31.728 342.376 43.232 342.376 57.424C342.376 71.616 353.88 83.12 368.072 83.12C368.464 83.12 368.848 83.112 369.232 83.096C355.576 82.48 344.696 71.224 344.696 57.424Z"
                fill="#202020" stroke="#202020" stroke-width="1.2" stroke-miterlimit="10" stroke-linecap="round"
                stroke-linejoin="round" />
            <path fill-rule="evenodd" clip-rule="evenodd"
                d="M378.664 54.4479C378.376 56.4319 377.344 57.6319 375.56 58.0479C376.728 58.6559 377.528 59.4319 377.944 60.3839C378.36 61.3359 378.32 62.5279 377.816 63.9759C377.552 64.7119 377.216 65.3359 376.808 65.8399C376.392 66.3439 375.936 66.7359 375.432 67.0079C374.928 67.2799 374.336 67.4639 373.656 67.5599C372.976 67.6559 372.288 67.6799 371.584 67.6319C370.88 67.5839 370.088 67.4719 369.208 67.2959L368.2 71.3599L365.744 70.7519L366.736 66.7519C365.888 66.5439 365.24 66.3759 364.792 66.2559L363.8 70.2719L361.344 69.6639L362.352 65.5999C362.16 65.5519 361.872 65.4799 361.496 65.3759C361.112 65.2799 360.824 65.1999 360.624 65.1519L357.432 64.3599L358.648 61.5679L360.4 61.9999C360.928 62.1279 361.304 61.9359 361.528 61.4159L363.112 55.0079L363.368 55.0719C363.304 55.0479 363.224 55.0159 363.12 54.9919L364.248 50.4159C364.288 49.6559 363.904 49.1839 363.096 48.9839L361.328 48.5439L361.976 45.9279L365.352 46.7759C366.032 46.9439 366.552 47.0639 366.904 47.1439L367.896 43.1279L370.352 43.7359L369.376 47.6719C370.256 47.8639 370.904 48.0159 371.328 48.1199L372.296 44.2159L374.752 44.8239L373.76 48.8399C374.584 49.1199 375.296 49.4239 375.904 49.7519C376.512 50.0799 377.056 50.4639 377.528 50.9119C378 51.3599 378.336 51.8879 378.536 52.4799C378.728 53.0799 378.776 53.7359 378.664 54.4479ZM373.088 62.2879C373.184 61.9039 373.184 61.5439 373.104 61.2079C373.016 60.8719 372.88 60.5759 372.696 60.3279C372.512 60.0799 372.24 59.8399 371.896 59.6159C371.552 59.3919 371.224 59.2079 370.928 59.0639C370.624 58.9199 370.24 58.7759 369.784 58.6319C369.328 58.4879 368.96 58.3759 368.696 58.3119C368.432 58.2479 368.088 58.1679 367.664 58.0719C367.24 57.9759 366.984 57.9199 366.904 57.9039L365.568 63.2959C365.656 63.3199 365.848 63.3679 366.152 63.4479C366.456 63.5279 366.712 63.5919 366.912 63.6479C367.112 63.7039 367.4 63.7599 367.76 63.8319C368.128 63.9039 368.44 63.9599 368.712 63.9999C368.976 64.0399 369.296 64.0639 369.656 64.0879C370.016 64.1119 370.328 64.1119 370.6 64.0799C370.864 64.0559 371.144 64.0079 371.44 63.9359C371.736 63.8639 371.984 63.7519 372.192 63.6159C372.4 63.4719 372.576 63.2959 372.744 63.0719C372.896 62.8479 373.016 62.5919 373.088 62.2879ZM373.864 53.4399C373.928 53.7439 373.92 54.0719 373.832 54.4239C373.76 54.7199 373.64 54.9839 373.488 55.1999C373.328 55.4239 373.136 55.5919 372.904 55.7039C372.672 55.8239 372.44 55.9199 372.208 55.9919C371.976 56.0639 371.696 56.0959 371.36 56.0959C371.032 56.0959 370.736 56.0799 370.496 56.0719C370.248 56.0559 369.952 56.0159 369.6 55.9439C369.248 55.8719 368.976 55.8159 368.792 55.7759C368.608 55.7359 368.36 55.6719 368.048 55.5919C367.736 55.5119 367.552 55.4639 367.504 55.4479L368.712 50.5519C368.784 50.5679 369 50.6159 369.344 50.6959C369.688 50.7759 369.976 50.8399 370.208 50.8959C370.44 50.9439 370.744 51.0399 371.12 51.1679C371.496 51.2959 371.816 51.4159 372.072 51.5359C372.328 51.6559 372.592 51.8159 372.88 52.0159C373.168 52.2159 373.384 52.4319 373.536 52.6479C373.688 52.8719 373.8 53.1359 373.864 53.4399Z"
                fill="white" />
            <path
                d="M403.024 89.0638C409.96 81.1118 408.608 70.5918 408.608 70.5918C408.608 70.5918 398.088 69.2478 390.136 76.1758C382.184 83.1118 386.296 92.8958 386.296 92.8958C386.296 92.8958 396.088 97.0158 403.024 89.0638Z"
                fill="#FF9C2E" stroke="#202020" stroke-width="1.2" stroke-miterlimit="10" stroke-linecap="round"
                stroke-linejoin="round" />
            <path d="M396.976 82.2239L386.296 92.9039" stroke="#202020" stroke-width="1.2" stroke-miterlimit="10"
                stroke-linecap="round" stroke-linejoin="round" />
            <path
                d="M328.536 215.496C347.269 215.496 362.456 200.309 362.456 181.576C362.456 162.843 347.269 147.656 328.536 147.656C309.802 147.656 294.616 162.843 294.616 181.576C294.616 200.309 309.802 215.496 328.536 215.496Z"
                fill="white" stroke="#202020" stroke-width="1.2" stroke-miterlimit="10" stroke-linecap="round"
                stroke-linejoin="round" />
            <path
                d="M328.56 207.272C342.752 207.272 354.256 195.767 354.256 181.576C354.256 167.384 342.752 155.88 328.56 155.88C314.369 155.88 302.864 167.384 302.864 181.576C302.864 195.767 314.369 207.272 328.56 207.272Z"
                fill="#F7931A" stroke="#202020" stroke-width="1.2" stroke-miterlimit="10" stroke-linecap="round"
                stroke-linejoin="round" />
            <path
                d="M305.184 181.576C305.184 167.776 316.064 156.512 329.72 155.904C329.336 155.888 328.952 155.88 328.56 155.88C314.368 155.88 302.864 167.384 302.864 181.576C302.864 195.768 314.368 207.272 328.56 207.272C328.952 207.272 329.336 207.264 329.72 207.248C316.072 206.64 305.184 195.384 305.184 181.576Z"
                fill="#202020" stroke="#202020" stroke-width="1.2" stroke-miterlimit="10" stroke-linecap="round"
                stroke-linejoin="round" />
            <path fill-rule="evenodd" clip-rule="evenodd"
                d="M339.16 178.608C338.872 180.592 337.84 181.792 336.056 182.208C337.224 182.816 338.024 183.592 338.44 184.544C338.856 185.496 338.816 186.688 338.312 188.136C338.048 188.872 337.712 189.496 337.304 190C336.888 190.504 336.432 190.896 335.928 191.168C335.424 191.44 334.832 191.624 334.152 191.72C333.472 191.816 332.784 191.84 332.08 191.792C331.376 191.744 330.584 191.632 329.704 191.456L328.696 195.52L326.24 194.912L327.232 190.912C326.384 190.704 325.736 190.536 325.288 190.416L324.296 194.432L321.84 193.824L322.848 189.76C322.656 189.712 322.368 189.64 321.992 189.536C321.608 189.44 321.32 189.36 321.12 189.312L317.928 188.52L319.144 185.728L320.912 186.168C321.44 186.296 321.816 186.104 322.04 185.584L323.624 179.176L323.88 179.24C323.816 179.216 323.736 179.184 323.632 179.16L324.76 174.584C324.8 173.824 324.416 173.352 323.608 173.152L321.84 172.712L322.488 170.096L325.864 170.944C326.544 171.112 327.064 171.232 327.416 171.312L328.408 167.296L330.864 167.904L329.888 171.84C330.768 172.032 331.416 172.184 331.84 172.288L332.808 168.384L335.264 168.992L334.272 173.008C335.096 173.288 335.808 173.592 336.416 173.92C337.024 174.248 337.568 174.632 338.04 175.08C338.512 175.528 338.848 176.056 339.048 176.648C339.224 177.232 339.264 177.896 339.16 178.608ZM333.584 186.448C333.68 186.064 333.68 185.704 333.6 185.368C333.512 185.032 333.376 184.736 333.192 184.488C333.008 184.24 332.736 184 332.392 183.776C332.048 183.552 331.72 183.368 331.424 183.224C331.12 183.08 330.736 182.936 330.28 182.792C329.824 182.648 329.456 182.536 329.192 182.472C328.928 182.408 328.584 182.328 328.16 182.232C327.736 182.136 327.48 182.08 327.4 182.064L326.064 187.456C326.152 187.48 326.344 187.528 326.648 187.608C326.952 187.688 327.208 187.752 327.408 187.808C327.608 187.864 327.896 187.92 328.256 187.992C328.624 188.064 328.936 188.12 329.208 188.16C329.472 188.2 329.792 188.224 330.152 188.248C330.512 188.272 330.824 188.272 331.096 188.24C331.36 188.216 331.64 188.168 331.936 188.096C332.232 188.024 332.48 187.912 332.688 187.776C332.896 187.632 333.072 187.456 333.24 187.232C333.392 187.008 333.504 186.752 333.584 186.448ZM334.36 177.6C334.424 177.904 334.416 178.232 334.328 178.584C334.256 178.88 334.136 179.144 333.984 179.36C333.824 179.584 333.632 179.752 333.4 179.864C333.168 179.976 332.936 180.08 332.704 180.152C332.472 180.224 332.192 180.256 331.856 180.256C331.528 180.256 331.232 180.24 330.992 180.232C330.744 180.216 330.448 180.176 330.096 180.104C329.744 180.032 329.472 179.976 329.288 179.936C329.104 179.896 328.856 179.832 328.544 179.752C328.232 179.672 328.048 179.624 328 179.608L329.208 174.712C329.28 174.728 329.496 174.776 329.84 174.856C330.184 174.936 330.472 175 330.704 175.056C330.936 175.104 331.24 175.2 331.616 175.328C331.992 175.456 332.312 175.576 332.568 175.696C332.824 175.816 333.088 175.976 333.376 176.176C333.664 176.376 333.88 176.592 334.032 176.808C334.184 177.032 334.288 177.296 334.36 177.6Z"
                fill="white" />
        </g>
        <path
            d="M26.0875 34.9988H20V20.4551H25.8415C28.6808 20.4551 30.3356 22.0485 30.3356 24.5401C30.3356 26.1549 29.2743 27.1949 28.5391 27.5425C29.4186 27.9515 30.5415 28.8712 30.5415 30.8121C30.5415 33.5284 28.6808 34.9988 26.0875 34.9988ZM25.617 22.9869H22.8392V26.3394H25.617C26.8227 26.3394 27.4964 25.6657 27.4964 24.6631C27.4964 23.6632 26.8227 22.9869 25.617 22.9869ZM25.8014 28.8926H22.8392V32.467H25.8014C27.0874 32.467 27.7023 31.6489 27.7023 30.6704C27.7023 29.6892 27.0874 28.8926 25.8014 28.8926Z"
            fill="white" />
        <path
            d="M39.2009 29.0342V34.9988H36.3831V29.0342L32.012 20.4551H35.0971L37.8134 26.318L40.4895 20.4551H43.5721L39.2009 29.0342Z"
            fill="white" />
        <path
            d="M51.6219 34.9988H45.5344V20.4551H51.376C54.2152 20.4551 55.8701 22.0485 55.8701 24.5401C55.8701 26.1549 54.8087 27.1949 54.0735 27.5425C54.9531 27.9515 56.0759 28.8712 56.0759 30.8121C56.0759 33.5284 54.2152 34.9988 51.6219 34.9988ZM51.1514 22.9869H48.3737V26.3394H51.1514C52.3571 26.3394 53.0308 25.6657 53.0308 24.6631C53.0308 23.6632 52.3571 22.9869 51.1514 22.9869ZM51.3359 28.8926H48.3737V32.467H51.3359C52.6218 32.467 53.2367 31.6489 53.2367 30.6704C53.234 29.6892 52.6218 28.8926 51.3359 28.8926Z"
            fill="white" />
        <path d="M62.0189 16H59.1797V30.5437H62.0189V16Z" fill="#F7A600" />
        <path d="M71.1702 22.9869V34.9988H68.331V22.9869H64.532V20.4551H74.9692V22.9869H71.1702Z" fill="white" />
    </g>
    <defs>
        <radialGradient id="paint0_radial_2031_35028" cx="0" cy="0" r="1" gradientUnits="userSpaceOnUse"
            gradientTransform="translate(471.008 216.109) scale(195.989 195.48)">
            <stop stop-color="#28C6B6" stop-opacity="0.4" />
            <stop offset="1" stop-color="#28C6B6" stop-opacity="0" />
        </radialGradient>
        <radialGradient id="paint1_radial_2031_35028" cx="0" cy="0" r="1" gradientUnits="userSpaceOnUse"
            gradientTransform="translate(428.962 45.3512) scale(181.841)">
            <stop stop-color="#28C6B6" stop-opacity="0.2" />
            <stop offset="1" stop-color="#28C6B6" stop-opacity="0.85" />
        </radialGradient>
        <clipPath id="clip0_2031_35028">
            <path d="M0 12C0 5.37259 5.37258 0 12 0H428C434.627 0 440 5.37258 440 12V240H0V12Z" fill="white" />
        </clipPath>
        <clipPath id="clip1_2031_35028">
            <rect width="198" height="233.768" fill="white" transform="translate(270 6)" />
        </clipPath>
    </defs>
</svg>